<svg width="678" height="92" viewBox="0 0 678 92" fill="none" xmlns="http://www.w3.org/2000/svg">
<path d="M351.7 91.0595C358.582 91.0595 364.16 85.4728 364.16 78.5812C364.16 71.6897 358.582 66.103 351.7 66.103C344.819 66.103 339.241 71.6897 339.241 78.5812C339.241 85.4728 344.819 91.0595 351.7 91.0595Z" fill="#3E6EE5"/>
<path d="M351.7 27.0536C358.582 27.0536 364.16 21.4669 364.16 14.5754C364.16 7.68386 358.582 2.09717 351.7 2.09717C344.819 2.09717 339.241 7.68386 339.241 14.5754C339.241 21.4669 344.819 27.0536 351.7 27.0536Z" fill="#3E6EE5"/>
<path fill-rule="evenodd" clip-rule="evenodd" d="M370.966 23.2787C385.395 23.2787 395.823 34.4147 395.823 46.5783C395.823 58.742 385.395 69.878 370.966 69.878V91.0595C396.367 91.0595 416.973 71.1363 416.973 46.5783C416.973 22.0204 396.388 2.09717 370.966 2.09717V23.2787Z" fill="#3E6EE5"/>
<path d="M607.367 89.9271V1.34229H676.241V19.1893H630.422V37.1831H666.859V53.9605H630.422V72.0801H678V89.9271H607.367Z" fill="#222222"/>
<path d="M512.379 42.1533V57.5885H532.608V58.9307C532.608 61.4264 532.168 63.6284 531.268 65.5159C530.367 67.2985 529.132 68.8294 527.519 70.0877C525.907 71.2412 524.043 72.143 521.886 72.7721C519.75 73.4013 517.384 73.7159 514.787 73.7159C509.971 73.7159 505.888 72.7302 502.6 70.7588C499.375 68.7036 496.925 65.5788 495.229 61.3635C493.616 57.1481 492.821 51.9262 492.821 45.6556C492.821 39.6577 493.616 34.6454 495.229 30.6188C496.841 26.5083 499.207 23.4255 502.328 21.3493C505.448 19.2102 509.217 18.1196 513.594 18.1196C517.97 18.1196 521.635 19.1472 524.588 21.2025C527.54 23.2577 529.593 26.5713 530.744 31.1431L552.062 22.6915C548.67 14.8271 543.895 9.08079 537.718 5.51558C531.561 1.82455 523.457 0 513.468 0C504.443 0 496.59 1.82455 489.889 5.49461C483.272 9.16467 478.183 14.4076 474.602 21.2025C471.021 27.9973 469.241 36.1973 469.241 45.7604C469.241 55.5123 470.937 63.7962 474.33 70.591C477.722 77.3859 482.455 82.545 488.528 86.0263C494.684 89.5076 501.699 91.2692 509.573 91.2692C517.258 91.2692 523.52 89.6544 528.336 86.4457C531.31 84.4324 533.718 81.9158 535.582 78.8959L536.503 89.948H552.188V42.1533H512.379Z" fill="#222222"/>
<path d="M282.114 1.34229H259.059V89.9271H282.114V1.34229Z" fill="#222222"/>
<path d="M209.953 89.9271L186.897 54.1283C190.394 52.9539 193.451 51.36 196.027 49.2628C201.828 44.5232 204.738 37.6235 204.738 28.5846C204.738 20.3427 201.786 13.7786 195.901 8.85019C190.101 3.83793 181.913 1.34229 171.38 1.34229H129.142V89.9271H151.8V57.5886H165.621L184.51 89.9271H209.953ZM151.8 18.7908H168.155C172.615 18.7908 175.966 19.6926 178.206 21.4752C180.447 23.2578 181.557 26.089 181.557 29.9268C181.557 33.8695 180.447 36.7217 178.206 38.5253C175.966 40.3288 172.615 41.2097 168.155 41.2097H151.8V18.7908Z" fill="#222222"/>
<path d="M22.2391 37.5815H38.9918C47.2215 37.5815 51.3259 34.3519 51.3259 27.9135C51.3259 21.4752 47.2215 18.2455 38.9918 18.2455H22.2391V37.5815ZM22.2391 73.695H41.1277C45.3368 73.695 48.457 72.8351 50.5092 71.1364C52.5614 69.4377 53.5875 66.984 53.5875 63.7543C53.5875 60.6295 52.5614 58.2597 50.5092 56.6449C48.457 54.9462 45.3368 54.0863 41.1277 54.0863H22.2391V73.695ZM0 89.9271V1.34229H43.0124C53.9225 1.42617 61.9638 3.54432 67.1362 7.65479C72.3086 11.6814 74.9052 17.5325 74.9052 25.2292C74.9052 30.2414 73.4394 34.5826 70.4867 38.2526C67.5341 41.8388 63.0318 44.1038 56.959 45.0894V45.2153C63.7438 46.1171 68.7905 48.4869 72.0992 52.3247C75.4916 56.0787 77.1878 60.6505 77.1878 66.0193C77.1878 73.632 74.5073 79.5251 69.1465 83.7404C63.7857 87.8509 55.7444 89.9062 45.0227 89.9062H0V89.9271Z" fill="#222222"/>
</svg>
